<svg xmlns="http://www.w3.org/2000/svg" width="512" height="512" viewBox="0 0 512 512" class="t"><path d="M458 328.5c0 10.1-21.1 24-21.9 34.1 -0.9 10.1 10.9 27.7 11 37.8 0 14.2-22.7 27.3-28 37.8 -3.6 7.1 0.6 24.4-2.4 31.7 -5.4 12.7-28.2 32.6-41.4 36.6 -42 12.6-175.5 0-175.5 0L54 486.9V277.3h2.6l0 0h44.8c14-3.2 43.3-22.2 79.5-114.5 5.9-15 17.1-23.7 29.9-33.5 21.3-16.4 37.2-39.4 42.5-122.5 0.7-11.4 36.6-9.7 56.1 15.8 16 20.9 18.1 61.7 5.5 92.4 -8.6 21-39.9 69.5-28.6 89.2 0 0 115.1-4.3 137.7 4.9 14.3 5.8 35 35.8 34.1 51.2 -0.5 8.5-16 20.9-17.1 29.2C439.6 300 458 317.8 458 328.5z" class="t"/><style>.t{fill: #1BBC9B}</style></svg>